<svg width="492.563" height="92.063" viewBox="0 0 492.563 92.063" xmlns="http://www.w3.org/2000/svg"><g id="svgGroup" stroke-linecap="round" fill-rule="evenodd" font-size="9pt" stroke="#000000" stroke-width=".75mm" fill="#ffffff" style="stroke:#000000;stroke-width:.75mm;fill:#ffffff"><path d="M 46.359 0.985 L 51.188 0.985 L 51.188 45.328 Q 51.188 52.823 48.483 58.208 A 21.347 21.347 0 0 1 48.094 58.945 Q 45 64.547 39.211 67.5 A 26.126 26.126 0 0 1 32.089 69.868 Q 29.048 70.435 25.583 70.453 A 43.757 43.757 0 0 1 25.359 70.453 A 36.143 36.143 0 0 1 17.941 69.739 Q 13.371 68.78 9.902 66.534 A 19.891 19.891 0 0 1 6.563 63.82 A 21.666 21.666 0 0 1 1.083 54.035 Q 0.152 50.597 0.021 46.5 A 42.565 42.565 0 0 1 0 45.141 L 0 0.985 L 4.781 0.985 L 4.781 45.141 Q 4.781 55.453 10.148 60.82 A 17.307 17.307 0 0 0 17.677 65.16 Q 21.185 66.188 25.594 66.188 Q 31.59 66.188 35.966 64.239 A 18.425 18.425 0 0 0 36.844 63.82 Q 41.484 61.453 43.922 56.883 Q 46.252 52.513 46.355 46.366 A 34.157 34.157 0 0 0 46.359 45.797 L 46.359 0.985 Z M 65.297 67.5 L 65.297 62.672 Q 68.717 63.988 73.143 64.996 A 80.405 80.405 0 0 0 73.758 65.133 Q 78.563 66.188 84.234 66.188 A 31.524 31.524 0 0 0 89.131 65.825 A 23.632 23.632 0 0 0 93.727 64.641 Q 97.875 63.094 100.266 59.953 A 11.425 11.425 0 0 0 102.348 55.256 A 16.047 16.047 0 0 0 102.656 52.031 A 14.641 14.641 0 0 0 102.364 49.025 Q 101.952 47.061 100.96 45.542 A 8.985 8.985 0 0 0 100.664 45.117 A 12.835 12.835 0 0 0 98.267 42.682 Q 97.123 41.78 95.682 40.991 A 23.835 23.835 0 0 0 94.688 40.477 A 58.82 58.82 0 0 0 91.409 39.008 Q 89.922 38.392 88.234 37.769 A 119.514 119.514 0 0 0 84.656 36.516 A 85.89 85.89 0 0 1 80.155 34.829 A 67.619 67.619 0 0 1 76.992 33.445 A 28.094 28.094 0 0 1 73.616 31.582 A 22.019 22.019 0 0 1 71.109 29.695 A 14.114 14.114 0 0 1 67.383 24.539 Q 66.094 21.516 66.094 17.391 A 18.476 18.476 0 0 1 66.626 12.85 A 14.023 14.023 0 0 1 68.977 7.852 A 17.237 17.237 0 0 1 75.023 2.805 A 21.306 21.306 0 0 1 76.805 1.992 A 27.32 27.32 0 0 1 83.74 0.246 A 34.709 34.709 0 0 1 87.938 0 Q 92.859 0 97.289 0.914 A 42.003 42.003 0 0 1 105.844 3.656 L 104.156 7.828 A 42.555 42.555 0 0 0 96.938 5.429 A 38.938 38.938 0 0 0 95.906 5.203 Q 91.781 4.36 87.75 4.36 A 27.853 27.853 0 0 0 83.202 4.714 A 21.17 21.17 0 0 0 79.148 5.789 A 14.575 14.575 0 0 0 75.582 7.712 A 12.304 12.304 0 0 0 73.172 10.078 A 10.369 10.369 0 0 0 71.235 14.447 A 14.551 14.551 0 0 0 70.969 17.297 A 16.216 16.216 0 0 0 71.232 20.307 Q 71.568 22.083 72.331 23.494 A 9.052 9.052 0 0 0 73.008 24.563 A 13.528 13.528 0 0 0 75.945 27.447 A 18.599 18.599 0 0 0 78.82 29.156 A 61.481 61.481 0 0 0 82.387 30.738 Q 84.234 31.492 86.327 32.229 A 106.283 106.283 0 0 0 87.75 32.719 A 95.23 95.23 0 0 1 92.759 34.564 Q 95.771 35.776 98.25 37.055 A 21.064 21.064 0 0 1 102.051 39.538 A 16.398 16.398 0 0 1 105.07 42.797 Q 107.484 46.266 107.484 51.844 A 20.148 20.148 0 0 1 106.934 56.67 A 15.048 15.048 0 0 1 104.391 62.133 A 18.253 18.253 0 0 1 97.679 67.627 A 22.531 22.531 0 0 1 96 68.367 A 29.618 29.618 0 0 1 88.926 70.148 A 38.343 38.343 0 0 1 84 70.453 A 75.812 75.812 0 0 1 80.021 70.354 A 56.311 56.311 0 0 1 76.43 70.055 A 61.298 61.298 0 0 1 73.195 69.592 A 45.85 45.85 0 0 1 70.289 69 Q 67.547 68.344 65.297 67.5 Z M 222.188 67.5 L 222.188 62.672 Q 225.608 63.988 230.034 64.996 A 80.405 80.405 0 0 0 230.648 65.133 Q 235.453 66.188 241.125 66.188 A 31.524 31.524 0 0 0 246.021 65.825 A 23.632 23.632 0 0 0 250.617 64.641 Q 254.766 63.094 257.156 59.953 A 11.425 11.425 0 0 0 259.238 55.256 A 16.047 16.047 0 0 0 259.547 52.031 A 14.641 14.641 0 0 0 259.255 49.025 Q 258.843 47.061 257.85 45.542 A 8.985 8.985 0 0 0 257.555 45.117 A 12.835 12.835 0 0 0 255.157 42.682 Q 254.014 41.78 252.572 40.991 A 23.835 23.835 0 0 0 251.578 40.477 A 58.82 58.82 0 0 0 248.3 39.008 Q 246.813 38.392 245.125 37.769 A 119.514 119.514 0 0 0 241.547 36.516 A 85.89 85.89 0 0 1 237.046 34.829 A 67.619 67.619 0 0 1 233.883 33.445 A 28.094 28.094 0 0 1 230.507 31.582 A 22.019 22.019 0 0 1 228 29.695 A 14.114 14.114 0 0 1 224.273 24.539 Q 222.984 21.516 222.984 17.391 A 18.476 18.476 0 0 1 223.517 12.85 A 14.023 14.023 0 0 1 225.867 7.852 A 17.237 17.237 0 0 1 231.913 2.805 A 21.306 21.306 0 0 1 233.695 1.992 A 27.32 27.32 0 0 1 240.631 0.246 A 34.709 34.709 0 0 1 244.828 0 Q 249.75 0 254.18 0.914 A 42.003 42.003 0 0 1 262.734 3.656 L 261.047 7.828 A 42.555 42.555 0 0 0 253.828 5.429 A 38.938 38.938 0 0 0 252.797 5.203 Q 248.672 4.36 244.641 4.36 A 27.853 27.853 0 0 0 240.093 4.714 A 21.17 21.17 0 0 0 236.039 5.789 A 14.575 14.575 0 0 0 232.473 7.712 A 12.304 12.304 0 0 0 230.063 10.078 A 10.369 10.369 0 0 0 228.126 14.447 A 14.551 14.551 0 0 0 227.859 17.297 A 16.216 16.216 0 0 0 228.123 20.307 Q 228.458 22.083 229.222 23.494 A 9.052 9.052 0 0 0 229.898 24.563 A 13.528 13.528 0 0 0 232.836 27.447 A 18.599 18.599 0 0 0 235.711 29.156 A 61.481 61.481 0 0 0 239.277 30.738 Q 241.125 31.492 243.218 32.229 A 106.283 106.283 0 0 0 244.641 32.719 A 95.23 95.23 0 0 1 249.65 34.564 Q 252.662 35.776 255.141 37.055 A 21.064 21.064 0 0 1 258.942 39.538 A 16.398 16.398 0 0 1 261.961 42.797 Q 264.375 46.266 264.375 51.844 A 20.148 20.148 0 0 1 263.824 56.67 A 15.048 15.048 0 0 1 261.281 62.133 A 18.253 18.253 0 0 1 254.569 67.627 A 22.531 22.531 0 0 1 252.891 68.367 A 29.618 29.618 0 0 1 245.817 70.148 A 38.343 38.343 0 0 1 240.891 70.453 A 75.812 75.812 0 0 1 236.912 70.354 A 56.311 56.311 0 0 1 233.32 70.055 A 61.298 61.298 0 0 1 230.086 69.592 A 45.85 45.85 0 0 1 227.18 69 Q 224.438 68.344 222.188 67.5 Z M 162.75 0.985 L 167.859 0.985 L 142.547 69.516 L 137.766 69.516 L 112.453 0.985 L 117.516 0.985 L 136.266 51.703 A 209.654 209.654 0 0 1 137.588 55.469 A 190.78 190.78 0 0 1 137.766 55.992 A 241.526 241.526 0 0 1 138.768 59.029 A 211.494 211.494 0 0 1 139.078 60 A 80.364 80.364 0 0 1 139.913 62.804 A 70.113 70.113 0 0 1 140.156 63.703 A 76.984 76.984 0 0 1 141.211 60.07 A 202.881 202.881 0 0 1 141.826 58.16 A 244.788 244.788 0 0 1 142.5 56.133 A 301.43 301.43 0 0 1 143.238 53.971 A 372.462 372.462 0 0 1 144.047 51.656 L 162.75 0.985 Z M 456.469 67.219 L 456.469 62.531 Q 459.984 64.266 464.25 65.344 Q 468.516 66.422 473.016 66.422 A 36.923 36.923 0 0 0 476.888 66.234 Q 481.812 65.712 484.359 63.75 A 8.559 8.559 0 0 0 487.78 57.498 A 11.553 11.553 0 0 0 487.828 56.438 A 8.918 8.918 0 0 0 487.535 54.095 A 6.827 6.827 0 0 0 486.117 51.399 Q 484.633 49.671 482.039 48.349 A 20.879 20.879 0 0 0 481.219 47.953 A 59.086 59.086 0 0 0 478.644 46.857 Q 477.206 46.282 475.569 45.701 A 110.43 110.43 0 0 0 473.531 45 Q 468.995 43.458 465.446 41.937 A 79.853 79.853 0 0 1 465.211 41.836 A 16.816 16.816 0 0 1 462.173 40.153 A 12.735 12.735 0 0 1 459.516 37.664 A 8.899 8.899 0 0 1 457.953 34.532 Q 457.594 33.271 457.493 31.772 A 17.996 17.996 0 0 1 457.453 30.563 A 12.205 12.205 0 0 1 458.265 26.022 Q 459.453 23.032 462.375 21 A 17.597 17.597 0 0 1 467.731 18.544 Q 470.106 17.88 472.932 17.673 A 36.365 36.365 0 0 1 475.594 17.578 A 42.92 42.92 0 0 1 481.089 17.917 A 35.637 35.637 0 0 1 484.148 18.445 Q 488.109 19.313 491.344 20.672 L 489.656 24.703 A 28.319 28.319 0 0 0 486.317 23.404 A 37.866 37.866 0 0 0 482.953 22.5 A 34.91 34.91 0 0 0 475.359 21.656 A 28.696 28.696 0 0 0 471.728 21.872 Q 468.026 22.345 465.609 23.86 Q 462.407 25.866 462.122 29.584 A 9.72 9.72 0 0 0 462.094 30.328 Q 462.094 32.916 463.143 34.614 A 5.708 5.708 0 0 0 463.781 35.461 Q 465.227 37.048 467.74 38.187 A 19.285 19.285 0 0 0 468.609 38.555 A 144.269 144.269 0 0 0 471.13 39.523 Q 473.367 40.36 476.063 41.297 Q 480.516 42.844 484.289 44.531 A 19.077 19.077 0 0 1 487.587 46.397 A 14.68 14.68 0 0 1 490.313 48.891 Q 492.563 51.563 492.563 56.156 A 15.17 15.17 0 0 1 492.096 60.003 A 11.924 11.924 0 0 1 490.289 63.914 Q 488.016 67.125 483.656 68.789 A 23.215 23.215 0 0 1 479.456 69.927 Q 477.429 70.289 475.101 70.402 A 44.92 44.92 0 0 1 472.922 70.453 Q 467.646 70.453 463.487 69.523 A 31.495 31.495 0 0 1 463.453 69.516 A 43.658 43.658 0 0 1 460.515 68.753 Q 458.227 68.069 456.469 67.219 Z M 282.609 60.094 L 282.281 60.094 A 266.455 266.455 0 0 1 282.466 64.234 A 301.574 301.574 0 0 1 282.516 65.672 A 186.537 186.537 0 0 1 282.586 68.496 A 155.75 155.75 0 0 1 282.609 71.156 L 282.609 92.063 L 277.828 92.063 L 277.828 18.563 L 281.766 18.563 L 282.328 28.735 L 282.609 28.735 A 20.1 20.1 0 0 1 285.347 24.228 A 23.301 23.301 0 0 1 286.172 23.25 A 15.983 15.983 0 0 1 290.454 19.879 A 19.378 19.378 0 0 1 291.984 19.125 A 17.356 17.356 0 0 1 295.84 17.965 Q 297.667 17.628 299.752 17.585 A 29.911 29.911 0 0 1 300.375 17.578 A 23.447 23.447 0 0 1 306.878 18.432 A 17.218 17.218 0 0 1 315.633 24.188 A 21.117 21.117 0 0 1 319.237 30.882 Q 320.255 33.893 320.701 37.569 A 50.962 50.962 0 0 1 321.047 43.688 A 48.051 48.051 0 0 1 320.638 50.14 Q 320.184 53.484 319.227 56.312 A 26.188 26.188 0 0 1 318.469 58.289 A 22.594 22.594 0 0 1 315.516 63.331 A 18.103 18.103 0 0 1 311.133 67.36 A 18.915 18.915 0 0 1 303.788 70.136 A 25.152 25.152 0 0 1 299.719 70.453 Q 295.125 70.453 291.727 69.07 A 17.29 17.29 0 0 1 288.181 67.143 A 14.571 14.571 0 0 1 286.078 65.32 A 17.528 17.528 0 0 1 282.609 60.094 Z M 449.813 65.203 L 449.813 69.141 A 21.674 21.674 0 0 1 448.401 69.57 Q 447.673 69.765 446.854 69.94 A 37.362 37.362 0 0 1 446.297 70.055 A 20.57 20.57 0 0 1 443.896 70.377 A 26.618 26.618 0 0 1 441.844 70.453 Q 438.289 70.453 435.722 69.355 A 10.611 10.611 0 0 1 434.672 68.836 A 9.883 9.883 0 0 1 430.796 64.81 A 12.543 12.543 0 0 1 430.359 63.914 A 15.389 15.389 0 0 1 429.419 60.931 Q 429.098 59.433 428.978 57.686 A 31.905 31.905 0 0 1 428.906 55.5 L 428.906 22.5 L 421.313 22.5 L 421.313 19.688 L 428.859 18.235 L 430.5 6.235 L 433.641 6.235 L 433.641 18.563 L 449.531 18.563 L 449.531 22.5 L 433.641 22.5 L 433.641 55.219 A 23.719 23.719 0 0 0 433.82 58.242 Q 434.246 61.545 435.68 63.539 Q 437.545 66.133 441.585 66.354 A 14.138 14.138 0 0 0 442.359 66.375 A 26.092 26.092 0 0 0 444.931 66.253 A 21.339 21.339 0 0 0 446.461 66.047 A 24.494 24.494 0 0 0 448.143 65.698 Q 449.041 65.477 449.813 65.203 Z M 418.641 18.563 L 417.891 22.922 A 23.782 23.782 0 0 0 414.75 22.289 A 24.3 24.3 0 0 0 412.666 22.108 A 29.478 29.478 0 0 0 411.328 22.078 A 16.39 16.39 0 0 0 407.711 22.462 A 13.294 13.294 0 0 0 404.883 23.438 A 13.303 13.303 0 0 0 400.078 27.328 A 16.622 16.622 0 0 0 397.898 31.095 A 21.012 21.012 0 0 0 397.078 33.422 A 25.572 25.572 0 0 0 396.244 37.697 A 33.271 33.271 0 0 0 396.047 41.391 L 396.047 69.516 L 391.266 69.516 L 391.266 18.563 L 395.344 18.563 L 395.813 28.172 L 396.094 28.172 A 17.568 17.568 0 0 1 399.398 22.852 A 15.775 15.775 0 0 1 404.566 19.084 A 17.271 17.271 0 0 1 404.578 19.078 A 15.161 15.161 0 0 1 408.941 17.838 A 19.345 19.345 0 0 1 411.516 17.672 A 31.093 31.093 0 0 1 413.944 17.764 A 26.165 26.165 0 0 1 415.313 17.906 A 26.55 26.55 0 0 1 417.6 18.306 A 22.39 22.39 0 0 1 418.641 18.563 Z M 376.769 50.113 A 41.662 41.662 0 0 0 377.203 43.969 Q 377.203 36.188 374.719 30.235 Q 372.234 24.281 367.289 20.93 A 17.192 17.192 0 0 0 367.103 20.806 Q 362.205 17.578 354.938 17.578 A 28.11 28.11 0 0 0 350.046 17.987 A 20.909 20.909 0 0 0 342.633 20.742 A 19.495 19.495 0 0 0 338.727 23.904 A 21.757 21.757 0 0 0 334.758 29.836 A 25.077 25.077 0 0 0 334.474 30.472 Q 333.141 33.578 332.531 37.283 A 41.151 41.151 0 0 0 332.016 43.969 A 42.495 42.495 0 0 0 332.245 48.452 A 33.236 33.236 0 0 0 333.516 54.774 Q 335.016 59.625 337.898 63.141 Q 340.781 66.656 344.953 68.555 A 20.354 20.354 0 0 0 349.418 69.979 A 25.786 25.786 0 0 0 354.469 70.453 A 28.337 28.337 0 0 0 358.969 70.111 A 21.042 21.042 0 0 0 364.336 68.531 A 19.255 19.255 0 0 0 371.438 63.094 A 21.946 21.946 0 0 0 373.529 60.017 A 25.811 25.811 0 0 0 375.75 54.727 A 33.049 33.049 0 0 0 376.769 50.113 Z M 182.344 69.516 L 177.516 69.516 L 177.516 0.985 L 182.344 0.985 L 182.344 69.516 Z M 336.891 43.969 A 39.732 39.732 0 0 0 337.258 49.511 Q 337.731 52.866 338.813 55.688 A 18.412 18.412 0 0 0 341.324 60.274 A 15.566 15.566 0 0 0 344.648 63.516 Q 348.513 66.293 354.41 66.328 A 25.437 25.437 0 0 0 354.563 66.328 Q 360.703 66.328 364.641 63.516 A 15.762 15.762 0 0 0 369.642 57.532 A 19.968 19.968 0 0 0 370.453 55.641 Q 372.328 50.578 372.328 43.969 A 39.553 39.553 0 0 0 371.897 37.988 A 29.695 29.695 0 0 0 370.547 32.531 A 18.006 18.006 0 0 0 368.083 27.819 A 15.411 15.411 0 0 0 364.922 24.633 A 13.755 13.755 0 0 0 359.937 22.322 Q 357.646 21.75 354.891 21.75 A 21.131 21.131 0 0 0 349.422 22.417 A 14.526 14.526 0 0 0 341.461 27.656 A 20.101 20.101 0 0 0 338.143 34.308 Q 337.292 37.172 337.019 40.606 A 42.515 42.515 0 0 0 336.891 43.969 Z M 282.609 43.313 L 282.609 44.11 A 49.563 49.563 0 0 0 282.867 49.321 Q 283.3 53.407 284.461 56.508 A 17.533 17.533 0 0 0 286.357 60.234 A 13.119 13.119 0 0 0 290.039 63.891 Q 293.716 66.296 299.151 66.328 A 24.945 24.945 0 0 0 299.297 66.328 A 18.362 18.362 0 0 0 303.695 65.826 A 13.888 13.888 0 0 0 308.484 63.656 A 15.205 15.205 0 0 0 312.719 58.987 A 20.385 20.385 0 0 0 314.203 55.922 A 26.963 26.963 0 0 0 315.6 50.797 Q 316.172 47.532 316.172 43.641 Q 316.172 36.872 314.541 32.153 A 18.022 18.022 0 0 0 312.07 27.328 A 13.267 13.267 0 0 0 303.386 22.057 A 20.372 20.372 0 0 0 299.766 21.75 Q 294.494 21.75 290.849 23.847 A 13.314 13.314 0 0 0 290.18 24.258 A 14.166 14.166 0 0 0 285.412 29.578 A 18.252 18.252 0 0 0 284.508 31.57 A 25.951 25.951 0 0 0 283.233 36.183 Q 282.804 38.503 282.669 41.171 A 49.204 49.204 0 0 0 282.609 43.313 Z" vector-effect="non-scaling-stroke"/></g></svg>